HIERARCHY
ROOT Hips
{
	OFFSET -0.001795 -0.223333 0.028219
	CHANNELS 6 Xposition Yposition Zposition Zrotation Yrotation Xrotation 
	JOINT LeftUpLeg
	{
		OFFSET 0.069520 -0.091406 -0.006815
		CHANNELS 3 Zrotation Yrotation Xrotation
		JOINT LeftLeg
		{
			OFFSET 0.034277 -0.375199 -0.004496
			CHANNELS 3 Zrotation Yrotation Xrotation
			JOINT LeftFoot
			{
				OFFSET -0.013596 -0.397961 -0.043693
				CHANNELS 3 Zrotation Yrotation Xrotation
				JOINT LeftToe
				{
					OFFSET 0.026358 -0.055791 0.119288
					CHANNELS 3 Zrotation Yrotation Xrotation
					End Site
					{
						OFFSET 0.000000 0.000000 0.000000
					}
				}
			}
		}
	}
	JOINT RightUpLeg
	{
		OFFSET -0.067670 -0.090522 -0.004320
		CHANNELS 3 Zrotation Yrotation Xrotation
		JOINT RightLeg
		{
			OFFSET -0.038290 -0.382569 -0.008850
			CHANNELS 3 Zrotation Yrotation Xrotation
			JOINT RightFoot
			{
				OFFSET 0.015774 -0.398415 -0.042312
				CHANNELS 3 Zrotation Yrotation Xrotation
				JOINT RightToe
				{
					OFFSET -0.025372 -0.048144 0.123348
					CHANNELS 3 Zrotation Yrotation Xrotation
					End Site
					{
						OFFSET 0.000000 0.000000 0.000000
					}
				}
			}
		}
	}
	JOINT Spine
	{
		OFFSET -0.002533 0.108963 -0.026696
		CHANNELS 3 Zrotation Yrotation Xrotation
		JOINT Spine1
		{
			OFFSET 0.005487 0.135180 0.001092
			CHANNELS 3 Zrotation Yrotation Xrotation
			JOINT Spine2
			{
				OFFSET 0.001457 0.052922 0.025425
				CHANNELS 3 Zrotation Yrotation Xrotation
				JOINT Neck
				{
					OFFSET -0.002778 0.213870 -0.042857
					CHANNELS 3 Zrotation Yrotation Xrotation
					JOINT Head
					{
						OFFSET 0.005152 0.064970 0.051349
						CHANNELS 3 Zrotation Yrotation Xrotation
						End Site
						{
							OFFSET 0.000000 0.000000 0.000000
						}
					}
				}
				JOINT LeftShoulder
				{
					OFFSET 0.078845 0.121749 -0.034090
					CHANNELS 3 Zrotation Yrotation Xrotation
					JOINT LeftArm
					{
						OFFSET 0.090977 0.030469 -0.008868
						CHANNELS 3 Zrotation Yrotation Xrotation
						JOINT LeftForeArm
						{
							OFFSET 0.259612 -0.012772 -0.027456
							CHANNELS 3 Zrotation Yrotation Xrotation
							JOINT LeftHand
							{
								OFFSET 0.249234 0.008986 -0.001171
								CHANNELS 3 Zrotation Yrotation Xrotation
								End Site
								{
									OFFSET 0.000000 0.000000 0.000000
								}
							}
						}
					}
				}
				JOINT RightShoulder
				{
					OFFSET -0.081759 0.118833 -0.038615
					CHANNELS 3 Zrotation Yrotation Xrotation
					JOINT RightArm
					{
						OFFSET -0.096012 0.032551 -0.009143
						CHANNELS 3 Zrotation Yrotation Xrotation
						JOINT RightForeArm
						{
							OFFSET -0.253742 -0.013329 -0.021401
							CHANNELS 3 Zrotation Yrotation Xrotation
							JOINT RightHand
							{
								OFFSET -0.255298 0.007772 -0.005559
								CHANNELS 3 Zrotation Yrotation Xrotation
								End Site
								{
									OFFSET 0.000000 0.000000 0.000000
								}
							}
						}
					}
				}
			}
		}
	}
}
MOTION
Frames: 6
Frame Time: 0.050000
-0.021857 0.842220 0.114753 -0.107289 -0.686077 -6.698318 22.017880 0.749860 -6.104650 -4.288503 0.534799 24.379446 5.031400 9.081022 -5.329200 0.000000 0.000000 0.000000 -17.203054 -0.535186 -13.986460 2.020480 0.792665 34.802168 -2.772383 -2.560635 -9.623856 0.000000 0.000000 0.000000 9.203873 -1.679362 15.067342 -7.891003 2.462452 -27.113751 -4.944104 5.142105 21.125265 7.929044 -1.490390 -30.333443 0.000000 0.000000 0.000000 -11.010165 -20.080549 7.482909 -42.588719 -31.422900 4.232980 1.618317 -40.442206 0.788738 0.000000 0.000000 0.000000 21.286521 6.653085 3.901633 50.571056 34.761089 7.859975 3.561918 35.059198 3.016737 0.000000 0.000000 0.000000 
-0.022771 0.841549 0.117772 -0.092418 -0.549495 -7.166764 22.104898 0.653103 -5.005200 -3.929652 0.400542 23.656192 4.794632 8.463083 -5.507888 0.000000 0.000000 0.000000 -17.396282 -0.517526 -12.625117 2.096125 0.724670 34.042867 -2.702370 -1.903924 -10.345734 0.000000 0.000000 0.000000 9.489782 -1.588468 14.157004 -7.983387 2.501248 -26.843548 -4.594038 5.579041 21.694005 7.925772 -1.515860 -29.700285 0.000000 0.000000 0.000000 -10.922145 -19.576399 7.180782 -44.106753 -30.711258 4.137561 0.317112 -39.957643 1.235677 0.000000 0.000000 0.000000 21.220134 6.320856 3.865314 51.287989 33.499805 7.361198 4.350088 34.163779 3.199343 0.000000 0.000000 0.000000 
-0.023716 0.841081 0.120519 -0.146517 -0.001665 -7.482150 22.223593 0.559045 -4.362458 -3.600303 0.255190 23.087738 4.514979 7.756830 -5.525611 0.000000 0.000000 0.000000 -17.254820 -0.497253 -11.459605 1.913140 0.719083 33.475995 -2.794609 -2.012641 -10.823060 0.000000 0.000000 0.000000 9.844407 -1.546226 13.505793 -8.154772 2.557209 -26.703192 -4.490098 5.688495 21.954191 7.667523 -1.426883 -28.830978 0.000000 0.000000 0.000000 -10.650043 -19.274230 6.956580 -45.512490 -30.089466 4.073008 -0.892479 -39.371520 1.629160 0.000000 0.000000 0.000000 21.288421 5.728361 3.666839 52.050357 32.067450 6.810890 5.379420 33.467300 3.459841 0.000000 0.000000 0.000000 
-0.024566 0.840008 0.123107 -0.190176 0.325767 -7.819522 22.196287 0.486273 -3.786317 -3.261494 0.120922 23.046262 4.263422 6.924580 -6.125642 0.000000 0.000000 0.000000 -17.202653 -0.490232 -10.673780 1.864326 0.695129 33.184142 -2.823784 -1.824767 -11.378218 0.000000 0.000000 0.000000 10.036397 -1.457233 12.708608 -8.095501 2.549305 -26.700041 -4.251781 5.760440 22.545657 7.040040 -1.080527 -28.575332 0.000000 0.000000 0.000000 -10.118895 -18.637716 6.619861 -47.156856 -29.564276 4.011877 -1.961771 -38.635211 1.980800 0.000000 0.000000 0.000000 20.677581 5.364075 3.506388 53.359086 30.691520 6.404830 5.623711 32.802648 3.488609 0.000000 0.000000 0.000000 
-0.025286 0.839215 0.125777 -0.166520 0.842284 -7.751313 22.187352 0.424645 -3.670712 -2.912267 -0.018311 22.794026 4.031824 6.279111 -6.261142 0.000000 0.000000 0.000000 -17.136498 -0.474802 -9.837927 1.766360 0.648107 32.332940 -2.966306 -1.891864 -12.249520 0.000000 0.000000 0.000000 10.119904 -1.383164 11.985643 -8.294987 2.603718 -26.538087 -4.103830 5.506825 22.565223 6.650839 -0.902914 -28.167675 0.000000 0.000000 0.000000 -10.004555 -18.265938 6.444828 -48.344562 -29.080866 3.974321 -2.902323 -37.151487 2.227226 0.000000 0.000000 0.000000 20.504462 5.028075 3.323305 54.345831 29.268294 5.924044 6.032384 32.180250 3.540139 0.000000 0.000000 0.000000 
-0.025883 0.837957 0.128754 -0.115627 1.044672 -7.719564 22.201451 0.395303 -3.568614 -2.541685 -0.152466 22.972665 3.874250 5.766219 -6.562238 0.000000 0.000000 0.000000 -17.144282 -0.454691 -9.180211 1.759766 0.612464 31.767566 -3.238494 -2.369466 -13.137751 0.000000 0.000000 0.000000 10.307767 -1.302915 11.230008 -8.502903 2.627527 -26.938254 -3.944437 5.700572 23.079302 6.222659 -0.675539 -27.707159 0.000000 0.000000 0.000000 -9.615896 -17.751650 6.176820 -50.001921 -28.373657 3.807553 -3.645882 -35.800473 2.391777 0.000000 0.000000 0.000000 20.151433 4.369971 3.027616 55.687467 27.711699 5.372552 6.808147 31.584530 3.722919 0.000000 0.000000 0.000000 
